<?xml version="1.0" encoding="utf-8"?>
<!-- Generator: Adobe Illustrator 22.0.1, SVG Export Plug-In . SVG Version: 6.00 Build 0)  -->
<svg version="1.1" id="Layer_1" xmlns="http://www.w3.org/2000/svg" xmlns:xlink="http://www.w3.org/1999/xlink" x="0px" y="0px"
	 viewBox="0 0 192 192" style="enable-background:new 0 0 192 192;" xml:space="preserve">
<style type="text/css">
	.st0{fill:#010101;}
</style>
<g>
	<path class="st0" d="M115.7,68.2V59c0-3.3-2.7-6.1-6.1-6.1H21.5c-3.3,0-6.1,2.7-6.1,6.1v50.3l8.3,4.4V183h43.1v-69.3l8.3-4.4v-35
		h34.5C113,74.3,115.7,71.5,115.7,68.2z M109.4,68.1H68.8v37.5l-8.3,4.4v66.8H48.4v-50.9h-6.2v50.9H30v-66.8l-8.3-4.4V59.2h87.8
		C109.4,59.2,109.4,68.1,109.4,68.1z"/>
	<path class="st0" d="M62,28.7C62,19.5,54.5,12,45.3,12s-16.7,7.5-16.7,16.7S36,45.4,45.3,45.4S62,37.9,62,28.7z M34.8,28.7
		c0-5.8,4.7-10.5,10.5-10.5c5.8,0,10.5,4.7,10.5,10.5S51,39.2,45.3,39.2C39.5,39.3,34.8,34.5,34.8,28.7z"/>
	<polygon class="st0" points="123.6,55.9 123.6,67.9 133.3,72.1 134.7,75.4 130.8,85.1 139.3,93.5 149.1,89.8 152.4,91 156.6,100.7 
		162.5,100.7 162.5,94.5 160.7,94.5 157.1,86.2 149.1,83.1 140.8,86.3 138.2,83.7 141.5,75.2 138.2,67.4 129.9,63.8 129.9,60.1 
		138.2,56.5 141.5,48.5 138.2,40.3 140.8,37.6 149.1,40.7 157.1,37.6 160.7,29.3 162.5,29.3 162.5,23.1 156.6,23.1 152.4,32.8 
		149.1,34 139.3,30.3 130.8,38.7 134.7,48.5 133.3,51.7 	"/>
	<path class="st0" d="M162.5,49v-6.2c-10.6,0-19.2,8.6-19.2,19.2s8.6,19.2,19.2,19.2v-6.2c-7.2,0-13-5.8-13-13S155.4,49,162.5,49z"
		/>
	<polygon class="st0" points="84.6,40.3 90.9,40.3 90.9,18.2 175.2,18.2 175.2,105.5 90.9,105.5 90.9,87 84.6,87 84.6,111.8 
		181.4,111.8 181.4,12 84.6,12 	"/>
</g>
</svg>
