<?xml version="1.0" encoding="utf-8"?>
<!-- Generator: Adobe Illustrator 22.0.1, SVG Export Plug-In . SVG Version: 6.00 Build 0)  -->
<svg version="1.1" id="Layer_1" xmlns="http://www.w3.org/2000/svg" xmlns:xlink="http://www.w3.org/1999/xlink" x="0px" y="0px"
	 viewBox="0 0 192 192" style="enable-background:new 0 0 192 192;" xml:space="preserve">
<g>
	<polygon points="22.5,90.2 16.4,106 21,110.5 28.5,118.1 42.7,112.6 40.3,106.5 30.2,110.5 25.6,105.9 24,104.4 29.6,90.2 
		24.8,78.6 10.8,72.4 10.8,63.8 24.8,57.7 29.6,46.1 24,31.9 30.2,25.8 44.4,31.3 55.9,26.5 62.1,12.5 70.7,12.5 76.8,26.5 
		88.4,31.3 102.6,25.8 108.8,31.9 103.7,44.8 109.8,47.2 116.4,30.3 104.2,18.1 88.5,24.3 81.8,21.5 75,6 57.8,6 51,21.5 44.3,24.3 
		28.5,18.1 16.4,30.3 22.5,46 19.8,52.7 4.3,59.5 4.3,76.7 19.8,83.5 	"/>
	<path d="M66.4,44.9c7.1,0,13.6,3.2,18.1,8.6l5.1-4.1c-5.7-7-14.1-11.1-23.2-11.1c-16.4,0-29.7,13.3-29.7,29.7
		c0,8.3,3.5,16.2,9.5,21.8l4.4-4.8c-4.7-4.4-7.4-10.6-7.4-17C43.2,55.3,53.6,44.9,66.4,44.9z"/>
	<path d="M120.5,56.9C84.4,56.9,55,86.3,55,122.4c0,36.1,29.4,65.5,65.5,65.5c36.1,0,65.5-29.4,65.5-65.5
		C186,86.3,156.6,56.9,120.5,56.9z M164.9,83.7c-4.4,1.5-8.9,2.8-13.3,3.7c-3.2-7-7.7-14.1-13.7-21.3
		C148.5,69.4,157.8,75.6,164.9,83.7z M152.6,119.2h-28.8V97.1c7.7-0.1,15.8-0.7,24.1-2.2C150.9,102.8,152.5,110.9,152.6,119.2z
		 M117.2,181.3c-1.1-0.1-2.3-0.2-3.4-0.3c-7.8-8-13.8-16.3-18-24.8c7.4-1.2,14.6-1.7,21.4-1.8V181.3z M93.1,150
		c-3-7.9-4.6-16-4.7-24.3h28.8v22.1C109.6,147.8,101.5,148.5,93.1,150z M123.7,63.5c1.1,0.1,2.3,0.2,3.4,0.3
		c7.8,8,13.8,16.3,18,24.8c-7.4,1.2-14.6,1.7-21.4,1.8V63.5z M94.6,94.7c6.6,1.1,14.3,2,22.6,2.3v22.1H88.6
		c0.5-6.2,1.8-12.5,3.9-18.8C93.1,98.4,93.9,96.5,94.6,94.7z M123.7,125.7h28.6c-0.5,6.2-1.8,12.5-3.9,18.8
		c-0.6,1.9-1.3,3.8-2.1,5.6c-6.6-1.1-14.3-2-22.6-2.3V125.7z M117.2,90.4c-7.2-0.3-13.9-1-19.8-1.9c6.1-12.5,13.6-21.4,16.5-24.6
		c1.1-0.1,2.2-0.2,3.3-0.3V90.4z M103.7,65.9c-3.9,5.1-8.8,12.4-13,21.4c-6.4-1.3-11.4-2.7-14.6-3.6C83.4,75.4,92.9,69.1,103.7,65.9
		z M71.8,89.1c2.7,0.9,8.4,2.7,16.2,4.4c-0.6,1.5-1.1,3-1.7,4.6c-2.1,6.2-3.7,13.4-4.3,21.1H61.6C62.2,108.1,65.9,97.8,71.8,89.1z
		 M82,125.7c0.1,8.1,1.5,16.7,4.8,25.6c-4.9,1.1-9.9,2.6-14.9,4.4c-5.9-8.6-9.6-18.9-10.2-30H82z M76,161.1
		c4.4-1.5,8.9-2.8,13.3-3.7c3.2,7,7.7,14.1,13.7,21.3C92.4,175.5,83.2,169.3,76,161.1z M123.7,154.5c7.2,0.3,13.9,1,19.8,1.9
		c-6.1,12.5-13.6,21.4-16.5,24.6c-1.1,0.1-2.2,0.2-3.3,0.3V154.5z M137.3,179c3.9-5.1,8.8-12.4,13-21.4c6.4,1.3,11.4,2.7,14.6,3.6
		C157.6,169.5,148.1,175.7,137.3,179z M169.1,155.7c-2.7-0.9-8.4-2.7-16.2-4.3c0.6-1.5,1.1-3,1.7-4.6c2.1-6.2,3.7-13.4,4.3-21.1
		h20.5C178.8,136.8,175.1,147.1,169.1,155.7z M159,119.2c-0.1-8-1.5-16.7-4.8-25.6c4.9-1.1,9.9-2.6,14.9-4.4
		c5.9,8.6,9.6,18.9,10.2,30H159z"/>
</g>
</svg>
