<?xml version="1.0" encoding="utf-8"?>
<!-- Generator: Adobe Illustrator 22.0.1, SVG Export Plug-In . SVG Version: 6.00 Build 0)  -->
<svg version="1.1" id="Layer_1" xmlns="http://www.w3.org/2000/svg" xmlns:xlink="http://www.w3.org/1999/xlink" x="0px" y="0px"
	 viewBox="0 0 192 192" style="enable-background:new 0 0 192 192;" xml:space="preserve">
<g>
	<path d="M116.9,44.3l-9.6-9.6c-2.7-2.7-7.2-2.7-9.9,0l-7.6,7.6L72.9,25.4L38.4,11.9c-2.5-1-5.4-0.4-7.3,1.5
		c-1.9,1.9-2.5,4.8-1.5,7.3l13.6,34.4l8.5,8.5l-14,14l3.2,23.6l-4.5,4.5l-4.1-4.1L9.7,124.3l4.8,4.8l17.8-17.8l53.2,53.2l-17.8,17.8
		l2.4,2.4l2.4,2.4L95,164.4l-3.5-3.5l5.1-5.1l10.4-3.3l16.7-16.7l20.1,20.1c4.1,4.1,9.5,6.1,14.9,6.1c5.4,0,10.8-2.1,14.9-6.2
		c8.2-8.2,8.2-21.5,0-29.7l-20.8-20.8c0.6-2.3,0-4.8-1.8-6.6l-10-10c0.5-1,0.8-2,0.8-3.1c0-1.9-0.7-3.6-2.1-5l-10.4-10.4
		c0.2-0.6,0.3-1.2,0.3-1.9c0-1.9-0.7-3.6-2.1-5l-9.6-9.6c-0.1-0.1-0.2-0.1-0.3-0.2c0.9-1.2,1.4-2.7,1.4-4.2
		C119,47.4,118.2,45.6,116.9,44.3z M36,18.2l29,11.4L47.3,47.2L36,18.2z M50.8,53.3L71,33.1l14,14L64.8,67.3l-8.4-8.4l0,0L50.8,53.3
		z M168.8,151.1c-5.6,5.6-14.6,5.6-20.2,0l-7-7l20.2-20.2l7,7C174.4,136.5,174.4,145.5,168.8,151.1z M157,119.1l-20.2,20.2l-8.3-8.3
		l8.4-8.4l0,0l11.8-11.8L157,119.1z M122.6,68.1c0,0,0.1,0.1,0.1,0.2s-0.1,0.2-0.1,0.2l-12.9,12.9l2.4,2.4l2.4,2.4L125,75.6l9.8,9.8
		c0.1,0.1,0.1,0.3,0,0.4L124.5,96l2.4,2.4l2.4,2.4l7.1-7.1l9.8,9.8c0.1,0.1,0.1,0.3,0,0.4l-15.3,15.3l-1.6,1.6l0,0l-25.8,25.8
		L93,149.8l-6.3,6.3l-45.6-45.6l6.9-6.9l-3.2-23.6l11.6-11.6l3.6,3.6l-4.2,4.2l4.8,4.8l9-9v0l7.1-7.1l25.5-25.5
		c0.1-0.1,0.3-0.1,0.4,0l9.6,9.6c0.1,0.1,0.1,0.3,0,0.4L95,66.6l2.4,2.4l2.4,2.4l12.9-12.9c0.1-0.1,0.3-0.1,0.4,0L122.6,68.1z"/>
</g>
</svg>
