<?xml version="1.0" encoding="utf-8"?>
<!-- Generator: Adobe Illustrator 22.0.1, SVG Export Plug-In . SVG Version: 6.00 Build 0)  -->
<svg version="1.1" id="Layer_1" xmlns="http://www.w3.org/2000/svg" xmlns:xlink="http://www.w3.org/1999/xlink" x="0px" y="0px"
	 viewBox="0 0 192 192" style="enable-background:new 0 0 192 192;" xml:space="preserve">
<style type="text/css">
	.st0{fill:#010101;}
</style>
<g>
	<path class="st0" d="M177.4,67.6L163,82l-4.5,0.9l-9.9-9.9l0.9-4.5l14.4-14.4l-5-1.4c-2.6-0.8-5.6-1.2-8.4-1.2
		c-7.9,0-15.2,3.1-20.8,8.7c-7.6,7.6-10.4,18.7-7.4,29L88,123.5c-2.6-0.8-5.4-1.1-8.2-1.1c-7.9,0-15.2,3.1-20.8,8.5
		c-7.6,7.6-10.4,18.7-7.4,29.1l1.4,5l14.4-14.4l4.5-0.9l9.9,9.9l-0.9,4.5l-14.4,14.4l5,1.4c2.6,0.8,5.6,1.2,8.4,1.2l0,0
		c7.9,0,15.2-3.1,20.8-8.7c7.6-7.6,10.4-18.7,7.4-29l34.4-34.4c2.6,0.8,5.4,1.1,8.2,1.1c7.9,0,15.2-3.1,20.8-8.5
		c7.6-7.6,10.5-18.7,7.4-29.1L177.4,67.6z M167,97.3c-4.3,4.3-10.2,6.8-16.4,6.8c-2.8,0-5.4-0.5-7.9-1.4l-1.9-0.6l-39.6,39.6
		l0.6,1.9c3.1,8.5,0.9,18.1-5.4,24.5c-4.6,4.6-11,7.1-17.7,6.8l7.9-7.9l2-9.4L74.1,143l-9.4,2l-7.9,7.9c-0.3-6.5,2-12.9,6.8-17.7
		c4.3-4.3,10.2-6.8,16.4-6.8c2.8,0,5.4,0.5,7.9,1.4l1.9,0.6l39.6-39.8l-0.6-1.9c-3.1-8.5-0.9-18.1,5.4-24.5c4.6-4.6,11-7.1,17.7-6.8
		l-7.9,7.9l-2,9.4l14.6,14.6l9.4-2l7.9-7.9C174.1,86.2,171.8,92.7,167,97.3z"/>
	<polygon class="st0" points="12.9,113 26.6,115.6 30.1,121.7 25.5,134.8 30.9,140.4 35.2,136.1 32.4,133.3 36.8,121 30.6,110.2 
		17.7,107.7 15.9,100.3 25.8,91.9 25.8,80.3 15.9,71.9 17.7,64.5 30.6,62 36.8,51 32.4,39 37.9,33.4 50.1,37.7 61.1,31.5 63.4,18.8 
		71,16.8 79.4,26.7 91,26.7 99.3,16.8 106.8,18.8 109.3,31.5 120.1,37.7 132.3,33.5 135,36.2 139.3,31.8 133.9,26.4 120.7,31.1 
		114.7,27.7 112,13.9 97.2,10 88,20.7 82.2,20.7 73.2,10 58.1,13.9 55.7,27.7 49.5,31.1 36.3,26.4 25.5,37.3 30.1,50.6 26.6,56.6 
		12.9,59.2 8.9,74.1 19.6,83.1 19.7,89.1 9.1,98.1 	"/>
	<path class="st0" d="M111,60.3l4.3-4.3c-16.6-16.6-43.7-16.6-60.2,0s-16.6,43.7,0,60.2l4.3-4.3c-14.2-14.2-14.2-37.5,0-51.6
		C73.5,46.1,96.7,46.1,111,60.3z"/>
</g>
</svg>
