<?xml version="1.0" encoding="utf-8"?>
<!-- Generator: Adobe Illustrator 22.0.1, SVG Export Plug-In . SVG Version: 6.00 Build 0)  -->
<svg version="1.1" id="Layer_1" xmlns="http://www.w3.org/2000/svg" xmlns:xlink="http://www.w3.org/1999/xlink" x="0px" y="0px"
	 viewBox="0 0 192 192" style="enable-background:new 0 0 192 192;" xml:space="preserve">
<style type="text/css">
	.st0{fill:#010101;}
</style>
<g>
	<path class="st0" d="M96.5,40.6c-30.9,0-56,25.1-56,56s25.1,56,56,56s56-25.1,56-56S127.4,40.6,96.5,40.6z M96.5,146.1
		c-27.3,0-49.5-22.2-49.5-49.5s22.2-49.5,49.5-49.5s49.5,22.2,49.5,49.5S123.7,146.1,96.5,146.1z"/>
	<path class="st0" d="M168.1,72.8l9-13.3l-8.8-15.1l-16.1,1.4l-5.1-5.1l1.4-16.1l-15.1-8.8l-13.3,9l-8-2.3L105.1,8H87.7l-6.9,14.5
		l-8,2.3l-13.3-8.8l-15.1,8.8l1.4,16.1L40.6,46l-16.1-1.4l-8.7,15l9,13.3l-2.3,8L8.1,87.8v17.4l14.5,6.9l2.3,8l-9,13.3l8.8,15.1
		l16.1-1.4l5.1,5.1l-1.4,16.1l15.1,8.8l13.3-9l8,2.3l6.9,14.5h17.4l6.9-14.5l8-2.3l13.3,9l15.1-8.8l-1.4-16.1l5.1-5.1l16.1,1.4
		l8.8-15.1l-9-13.3l2.3-8l14.5-6.9V87.9L170.5,81L168.1,72.8z M178.4,101.3l-13.5,6.4l-3.7,13.8l8.4,12.4l-4.7,8l-15-1.3l-9.3,9.3
		l1.3,15l-8,4.7l-12.4-8.4l-13.8,3.7l-6.4,13.5h-9.3L85.5,165l-13.8-3.7l-12.4,8.4l-8-4.7l1.3-15l-9.3-9.3l-15,1.3l-4.7-8l8.4-12.4
		l-3.7-13.8l-13.5-6.4v-9.3l13.5-6.4l3.7-13.8l-8.4-12.4l4.7-8l15,1.3l9.3-9.3l-1.3-15l8-4.7L71.6,32l13.8-3.7l6.4-13.5h9.3
		l6.4,13.5l13.8,3.7l12.4-8.4l8,4.7l-1.3,15l9.3,9.3l15-1.3l4.7,8l-8.4,12.4l3.7,13.8l13.5,6.4L178.4,101.3L178.4,101.3z"/>
	<path class="st0" d="M112.8,62.8l-4.8-2.6v23.5l-3.1,4.7H88L85,83.7V60.3l-4.8,2.6C69.1,69,62.3,80.4,62.3,92.9S69.2,117,80.1,123
		v9.2h6.4V119l-1.9-0.8c-9.8-4.5-16.1-14.5-16.1-25.1c0-8.2,3.7-15.9,9.8-21.2v14l6.1,9.2h24l6.1-9.2v-14c6.1,5.1,9.8,12.9,9.8,21.2
		c0,10.8-6.3,20.6-16.1,25.1l-1.9,0.8v13.2h6.4V123c10.9-6,17.9-17.5,17.9-30.1C130.6,80.4,123.9,69,112.8,62.8z"/>
</g>
</svg>
