<?xml version="1.0" encoding="utf-8"?>
<!-- Generator: Adobe Illustrator 19.1.0, SVG Export Plug-In . SVG Version: 6.00 Build 0)  -->
<svg version="1.1" id="Layer_1" xmlns="http://www.w3.org/2000/svg" xmlns:xlink="http://www.w3.org/1999/xlink" x="0px" y="0px"
	 viewBox="0 0 192 192" style="enable-background:new 0 0 192 192;" xml:space="preserve">
<style type="text/css">
	.st0{fill:#010101;}
</style>
<g>
	<polygon class="st0" points="13.3,119.7 27.7,122.5 31.3,128.8 26.4,142.7 32.2,148.4 36.7,143.9 33.8,141 38.4,128.2 31.8,116.7 
		18.4,114.2 16.4,106.3 26.8,97.6 26.8,85.4 16.4,76.6 18.4,68.8 31.8,66.2 38.4,54.7 33.8,42 39.6,36.2 52.3,40.8 63.8,34.2 
		66.4,20.8 74.2,18.8 83,29.2 95.2,29.2 103.9,18.8 111.8,20.8 114.3,34.2 125.8,40.8 138.6,36.2 141.5,39.1 146,34.6 140.3,28.8 
		126.4,33.7 120.1,30.1 117.3,15.7 101.7,11.6 92.2,22.8 85.9,22.8 76.5,11.6 60.8,15.7 58.1,30.1 51.7,33.7 37.9,28.8 26.4,40.3 
		31.3,54.1 27.7,60.5 13.3,63.2 9.2,78.9 20.4,88.3 20.4,94.6 9.2,104 	"/>
	<path class="st0" d="M116.2,64.4l4.5-4.5c-17.4-17.4-45.8-17.4-63.2,0C49,68.3,44.4,79.5,44.4,91.5c0,11.9,4.6,23.2,13.1,31.6
		l4.5-4.5c-7.2-7.2-11.2-16.9-11.2-27.1c0-10.2,4-19.9,11.2-27.1C76.9,49.4,101.2,49.4,116.2,64.4z"/>
	<path class="st0" d="M150.8,50l-64.6,64.6l-28.5,28.5L45.2,175c-0.9,2.4-0.4,5.1,1.4,6.9c1.2,1.2,2.9,1.9,4.5,1.9
		c0.8,0,1.6-0.1,2.3-0.4l31.9-12.5l28.5-28.5h0l64.6-64.6c7.6-7.6,7.6-20,0-27.6C170.8,42.4,158.4,42.4,150.8,50z M51.1,177.3
		l10.5-26.7l16.2,16.2L51.1,177.3z M109.3,137.7L109.3,137.7l-25.8,25.8L65,144.9l28.2-28.2l39-39l18.6,18.6L109.3,137.7z
		 M155.3,91.7l-18.6-18.6l11.1-11.1l18.6,18.6L155.3,91.7z M173.9,73.1l-3,3l-18.6-18.6l3-3c5.1-5.1,13.4-5.1,18.6,0
		C179,59.7,179,68,173.9,73.1z"/>
</g>
</svg>
