<?xml version="1.0" encoding="utf-8"?>
<!-- Generator: Adobe Illustrator 22.0.1, SVG Export Plug-In . SVG Version: 6.00 Build 0)  -->
<svg version="1.1" id="Layer_1" xmlns="http://www.w3.org/2000/svg" xmlns:xlink="http://www.w3.org/1999/xlink" x="0px" y="0px"
	 viewBox="0 0 192 192" style="enable-background:new 0 0 192 192;" xml:space="preserve">
<g>
	<polygon points="147.7,112.6 147.7,106.8 139.3,102.8 138.4,99.4 143.6,91.7 137.8,81.7 128.5,82.5 126.5,80.5 127.3,71.3 
		117.4,65.4 109.6,70.7 106.3,69.8 102.3,61.4 90.7,61.4 86.7,69.8 83.4,70.7 75.6,65.4 65.7,71.3 66.5,80.5 64.5,82.5 55.2,81.7 
		49.4,91.7 54.6,99.4 53.7,102.8 45.3,106.8 45.3,112.6 51.7,112.6 51.7,110.8 59.1,107.3 61.5,98.2 56.9,91.4 58.7,88.4 66.9,89.1 
		73.1,83 72.4,74.7 75.4,73 82.2,77.6 91.2,75.2 94.7,67.7 98.3,67.7 101.8,75.2 110.8,77.6 117.6,73 120.6,74.7 119.9,83 
		126.1,89.1 134.3,88.4 136.1,91.4 131.5,98.2 133.9,107.3 141.3,110.8 141.3,112.6 	"/>
	<path d="M96.5,83.6c-16,0-29,13-29,29h6.4c0-12.5,10.1-22.6,22.6-22.6c12.5,0,22.6,10.1,22.6,22.6h6.4
		C125.5,96.6,112.5,83.6,96.5,83.6z"/>
	<path d="M174.3,112.6V39.9c0-3.8-3.1-6.9-6.9-6.9H25.6c-3.8,0-6.9,3.1-6.9,6.9v72.7h6.4V39.9c0-0.3,0.2-0.5,0.5-0.5h141.8
		c0.3,0,0.5,0.2,0.5,0.5v72.7H174.3z"/>
	<path d="M9,148.3l16.6,6.9h141.8l16.6-6.9v-19.3H9V148.3z M15.4,135.5h162.3v8.6l-11.5,4.8H26.9l-11.5-4.8V135.5z"/>
</g>
</svg>
