<?xml version="1.0" encoding="utf-8"?>
<!-- Generator: Adobe Illustrator 22.0.1, SVG Export Plug-In . SVG Version: 6.00 Build 0)  -->
<svg version="1.1" id="Layer_1" xmlns="http://www.w3.org/2000/svg" xmlns:xlink="http://www.w3.org/1999/xlink" x="0px" y="0px"
	 viewBox="0 0 192 192" style="enable-background:new 0 0 192 192;" xml:space="preserve">
<g>
	<path d="M101.5,15c-43.8,0-79.7,34.3-82.3,77.4l-6-16.9l-6,2.2l11.7,32.7l22.5-26.4l-4.9-4.1L25.6,92.4c2.6-39.6,35.7-71,75.9-71
		c42,0,76.1,34.1,76.1,76.1c0,42-34.1,76.1-76.1,76.1v6.4c45.5,0,82.5-37,82.5-82.5S147,15,101.5,15z"/>
	<path d="M114.9,138.9l5.7-2.4l14,5.4l11-11l-5.5-14l2.4-5.7l13.7-6V89.7l-13.7-6l-2.4-5.7l5.5-14l-11-11l-14,5.5l-5.7-2.4l-6-13.7
		H93.3l-6,13.7l-5.7,2.4l-14-5.5l-11,11L62,78l-2.4,5.7l-13.7,6v15.6l13.7,6L62,117l-5.4,14l11,11l14-5.5l5.7,2.4l6,13.7h15.6
		L114.9,138.9z M97.5,146.3L92.1,134l-10.5-4.3l-12.5,4.9l-5.1-5.1l4.9-12.5l-4.3-10.5l-12.3-5.4v-7.2l12.3-5.4L68.9,78L64,65.6
		l5.1-5.1l12.5,4.9L92.1,61l5.4-12.3h7.2l5.4,12.3l10.5,4.3l12.5-4.9l5.1,5.1L133.3,78l4.3,10.5l12.3,5.4v7.2l-12.3,5.4l-4.3,10.5
		l4.9,12.5l-5.1,5.1l-12.5-4.9l-10.5,4.3l-5.4,12.3H97.5z"/>
	<path d="M121.6,97.5c0-11.3-9.2-20.5-20.5-20.5c-11.3,0-20.5,9.2-20.5,20.5c0,11.3,9.2,20.5,20.5,20.5
		C112.4,118,121.6,108.8,121.6,97.5z M101.1,111.6c-7.8,0-14.1-6.3-14.1-14.1c0-7.8,6.3-14.1,14.1-14.1c7.8,0,14.1,6.3,14.1,14.1
		C115.2,105.3,108.9,111.6,101.1,111.6z"/>
	<path d="M68.9,173.9c4.8,2,9.9,3.6,15.1,4.7l1.3-6.3c-4.8-1-9.4-2.5-13.9-4.4L68.9,173.9z"/>
	<path d="M45,149.5l-4.7,4.4c4,4.3,8.4,8.2,13.2,11.5l3.7-5.2C52.8,157.1,48.7,153.5,45,149.5z"/>
	<path d="M23.1,125.6c1.8,4.9,4,9.8,6.7,14.3l5.5-3.3c-2.5-4.2-4.6-8.6-6.2-13.2L23.1,125.6z"/>
</g>
</svg>
