<?xml version="1.0" encoding="utf-8"?>
<!-- Generator: Adobe Illustrator 19.1.0, SVG Export Plug-In . SVG Version: 6.00 Build 0)  -->
<svg version="1.1" id="Layer_1" xmlns="http://www.w3.org/2000/svg" xmlns:xlink="http://www.w3.org/1999/xlink" x="0px" y="0px"
	 viewBox="0 0 192 192" style="enable-background:new 0 0 192 192;" xml:space="preserve">
<style type="text/css">
	.st0{fill:#010101;}
</style>
<g>
	<path class="st0" d="M43.6,24.4H27.3c-7.6,0-13.8,6.2-13.8,13.8v114.6c0,7.6,6.2,13.8,13.8,13.8h151.3V40.3H43.6V24.4z M19.6,38.2
		c0-4.2,3.4-7.7,7.7-7.7h10.3V139H27.3c-2.8,0-5.5,0.9-7.7,2.3V38.2z M172.4,46.5v114H27.3c-4.2,0-7.7-3.4-7.7-7.7
		c0-4.2,3.4-7.7,7.7-7.7h16.4V46.5H172.4z"/>
	<path class="st0" d="M68,144.8h6.1v-9.6h69v9.6h6.1v-9.6h8v-6.1h-8V80.4h8v-6.1h-8v-9.6h-6.1v9.6h-69v-9.6H68v9.6h-8v6.1h8v48.7h-8
		v6.1h8V144.8z M74.2,112.6h16.7v4.8H97v-15.7h-6.1v4.8H74.2V80.4h44.1v16.7h-4.8v6.1h15.7v-6.1h-4.8V80.4h18.8v48.7h-69V112.6z"/>
</g>
</svg>
