<?xml version="1.0" encoding="utf-8"?>
<!-- Generator: Adobe Illustrator 19.1.0, SVG Export Plug-In . SVG Version: 6.00 Build 0)  -->
<svg version="1.1" id="Layer_1" xmlns="http://www.w3.org/2000/svg" xmlns:xlink="http://www.w3.org/1999/xlink" x="0px" y="0px"
	 viewBox="0 0 192 192" style="enable-background:new 0 0 192 192;" xml:space="preserve">
<style type="text/css">
	.st0{fill:#010101;}
</style>
<g>
	<path class="st0" d="M173.9,11.9H80c-3.4,0-6.1,2.7-6.1,6.1v154.4H60.2h-2.3v-45.9h2.5c3.4,0,6.1-2.7,6.1-6.1v-20.1
		c0-3.4-2.7-6.1-6.1-6.1h-2.5v-9.4h-6.1v9.4h-1.8c-3.4,0-6.1,2.7-6.1,6.1v20.1c0,3.4,2.7,6.1,6.1,6.1h1.8v45.9
		c0,3.4,2.7,6.1,6.1,6.1h2.3h18.3H80h30.2h63.8c3.4,0,6.1-2.7,6.1-6.1V18C180,14.6,177.3,11.9,173.9,11.9z M50.1,120.4v-20.1h10.4
		l0,20.1H50.1z M80,18h93.9l0,39.4H80V18z M110.2,172.4H80V63.5h93.9l0,108.9H110.2z"/>
	<path class="st0" d="M157.3,24.2h-11.4c-3.4,0-6.1,2.7-6.1,6.1v15.2c0,3.4,2.7,6.1,6.1,6.1h11.4c3.4,0,6.1-2.7,6.1-6.1V30.3
		C163.4,26.9,160.7,24.2,157.3,24.2z M145.9,45.5V30.3h11.4l0,15.2H145.9z"/>
	<path class="st0" d="M127,81.8c-17,0-30.8,13.8-30.8,30.8s13.8,30.8,30.8,30.8s30.8-13.8,30.8-30.8S143.9,81.8,127,81.8z
		 M127,137.3c-13.6,0-24.7-11.1-24.7-24.7c0-13.6,11.1-24.7,24.7-24.7s24.7,11.1,24.7,24.7C151.7,126.2,140.6,137.3,127,137.3z"/>
	<rect x="94.8" y="157.8" class="st0" width="6.6" height="6.1"/>
	<rect x="114" y="157.8" class="st0" width="6.6" height="6.1"/>
	<rect x="133.3" y="157.8" class="st0" width="6.6" height="6.1"/>
	<rect x="152.6" y="157.8" class="st0" width="6.6" height="6.1"/>
	
		<rect x="123.9" y="97.2" transform="matrix(-0.7071 -0.7071 0.7071 -0.7071 137.1527 281.9164)" class="st0" width="6.1" height="30.7"/>
	<path class="st0" d="M26.3,126.5h2.5c3.4,0,6.1-2.7,6.1-6.1v-20.1c0-3.4-2.7-6.1-6.1-6.1h-2.5v-9.4h-6.1v9.4h-1.8
		c-3.4,0-6.1,2.7-6.1,6.1v20.1c0,3.4,2.7,6.1,6.1,6.1h1.8v45.9c0,3.4,2.7,6.1,6.1,6.1h12.4v-6.1H26.3V126.5z M18.4,120.4v-20.1h10.4
		l0,20.1H18.4z"/>
</g>
</svg>
